<?xml version="1.0" encoding="UTF-8"?>
<svg width="28px" height="25px" viewBox="0 0 28 25" version="1.1" xmlns="http://www.w3.org/2000/svg" xmlns:xlink="http://www.w3.org/1999/xlink">
    <!-- Generator: Sketch 41 (35326) - http://www.bohemiancoding.com/sketch -->
    <title>clock</title>
    <desc>Created with Sketch.</desc>
    <defs></defs>
    <g id="Page-1" stroke="none" stroke-width="1" fill="none" fill-rule="evenodd">
        <g id="STAGE-4" transform="translate(-882.000000, -462.000000)" fill="#FFFFFF">
            <g id="Horloge" transform="translate(723.000000, 340.000000)">
                <g id="clock" transform="translate(159.000000, 122.000000)">
                    <path d="M13.0447059,14.9671053 L16.7341176,17.7302632 C16.8988235,17.8618421 17.0964706,17.9276316 17.2941176,17.9276316 C17.5905882,17.9276316 17.8870588,17.7960526 18.0517647,17.5328947 C18.3811765,17.1052632 18.2823529,16.5131579 17.8541176,16.1842105 L14.56,13.6842105 L14.56,7.73026316 C14.56,7.20394737 14.1317647,6.77631579 13.6047059,6.77631579 C13.0776471,6.77631579 12.6494118,7.20394737 12.6494118,7.73026316 L12.6494118,14.2105263 C12.6494118,14.5065789 12.8141176,14.8026316 13.0447059,14.9671053 Z" id="Shape"></path>
                    <path d="M1.54823529,1.25 C-0.0988235294,2.89473684 -0.0988235294,5.52631579 1.54823529,7.17105263 C1.71294118,7.33552632 1.97647059,7.43421053 2.24,7.43421053 C2.50352941,7.43421053 2.73411765,7.33552632 2.93176471,7.17105263 L7.51058824,2.59868421 C7.87294118,2.23684211 7.87294118,1.61184211 7.51058824,1.25 C6.72,0.460526316 5.66588235,0.0328947368 4.54588235,0.0328947368 C3.42588235,0.0328947368 2.33882353,0.460526316 1.54823529,1.25 Z M2.37176471,5 C2.07529412,4.21052632 2.24,3.25657895 2.89882353,2.59868421 C3.32705882,2.17105263 3.88705882,1.94078947 4.51294118,1.94078947 C4.77647059,1.94078947 5.04,1.97368421 5.30352941,2.07236842 L2.37176471,5 Z" id="Shape"></path>
                    <path d="M26.6164706,1.25 C25.8258824,0.460526316 24.7717647,0.0328947368 23.6517647,0.0328947368 C22.5317647,0.0328947368 21.4776471,0.460526316 20.6870588,1.25 C20.3247059,1.61184211 20.3247059,2.23684211 20.6870588,2.59868421 L25.2658824,7.17105263 C25.4635294,7.36842105 25.6941176,7.43421053 25.9576471,7.43421053 C26.2211765,7.43421053 26.4517647,7.33552632 26.6494118,7.17105263 C27.44,6.38157895 27.8682353,5.32894737 27.8682353,4.21052632 C27.8682353,3.09210526 27.4070588,2.03947368 26.6164706,1.25 Z M25.7929412,5 L22.8611765,2.07236842 C23.1247059,1.97368421 23.3882353,1.94078947 23.6517647,1.94078947 C24.2447059,1.94078947 24.8376471,2.17105263 25.2658824,2.59868421 L25.2658824,2.59868421 C25.6941176,3.02631579 25.9247059,3.58552632 25.9247059,4.21052632 C25.9247059,4.47368421 25.8917647,4.73684211 25.7929412,5 Z" id="Shape"></path>
                    <path d="M1.9179325,24.7056295 C2.11493153,24.9018765 2.34476374,24.9672922 2.60742912,24.9672922 C2.8700945,24.9672922 3.09992671,24.8691687 3.29692575,24.7056295 L6.15341176,21.8600478 C8.22190164,23.7898101 11.0127213,25 14.0662064,25 C17.1525246,25 19.9761774,23.7898101 22.0775005,21.7946322 L25.032486,24.7383373 C25.2294851,24.9345843 25.4593173,25 25.7219826,25 C25.984648,25 26.2144802,24.9018765 26.4114793,24.7383373 C26.7726442,24.3785511 26.7726442,23.7571023 26.4114793,23.3973161 L23.3908274,20.3881953 C24.835487,18.458433 25.6891495,16.0707611 25.6891495,13.4868421 C25.6891495,7.14152213 20.5015082,1.97368421 14.1318727,1.97368421 C7.76223722,1.97368421 2.47609643,7.10881429 2.47609643,13.4541343 C2.47609643,16.0707611 3.36259209,18.4911408 4.84008486,20.4536109 L1.9179325,23.3646083 C1.5567676,23.7243944 1.5567676,24.3458433 1.9179325,24.7056295 Z M14.1647059,23.2991926 C19.604684,23.2991926 24.0146577,18.9060536 24.0146577,13.4868421 C24.0146577,8.06763058 19.604684,3.67449163 14.1647059,3.67449163 C8.72472773,3.67449163 4.3147541,8.06763058 4.3147541,13.4868421 C4.3147541,18.9060536 8.72472773,23.2991926 14.1647059,23.2991926 Z" id="Shape"></path>
                </g>
            </g>
        </g>
    </g>
</svg>