<?xml version="1.0" encoding="UTF-8"?>
<svg width="40px" height="36px" viewBox="0 0 40 36" version="1.1" xmlns="http://www.w3.org/2000/svg" xmlns:xlink="http://www.w3.org/1999/xlink">
    <!-- Generator: Sketch 40 (33762) - http://www.bohemiancoding.com/sketch -->
    <title>Horloge Copy</title>
    <desc>Created with Sketch.</desc>
    <defs></defs>
    <g id="Page-1" stroke="none" stroke-width="1" fill="none" fill-rule="evenodd">
        <g id="STAGE_4" transform="translate(-877.000000, -605.000000)">
            <g id="POP-UP">
                <g id="Horloge-Copy" transform="translate(877.000000, 605.000000)">
                    <g id="clock">
                        <path d="M1.75805158,1.73008219 C-0.586017192,4.0680311 -0.586017192,7.80874936 1.75805158,10.1466983 C1.99245845,10.3804932 2.36750946,10.5207701 2.74256046,10.5207701 C3.11761146,10.5207701 3.44578109,10.3804932 3.72706934,10.1466983 L10.2435805,3.6472003 C10.7592757,3.13285154 10.7592757,2.24443095 10.2435805,1.73008219 C9.11842751,0.607866716 7.6182235,0 6.02425674,0 C4.43028997,0 2.88320459,0.607866716 1.75805158,1.73008219 Z M2.93008596,7.06060571 C2.50815358,5.93839023 2.74256046,4.58237986 3.68018797,3.6472003 C4.28964585,3.03933358 5.08662923,2.71202074 5.97737536,2.71202074 C6.35242636,2.71202074 6.72747737,2.75877971 7.10252837,2.89905665 L2.93008596,7.06060571 Z" id="Shape" fill="#000000"></path>
                        <path d="M37.8254189,1.73008219 C36.7002659,0.607866716 35.2000619,0 33.6060951,0 C32.0121284,0 30.5119244,0.607866716 29.3867713,1.73008219 C28.8710762,2.24443095 28.8710762,3.13285154 29.3867713,3.6472003 L35.9032825,10.1466983 C36.1845708,10.4272521 36.5127404,10.5207701 36.8877914,10.5207701 C37.2628424,10.5207701 37.591012,10.3804932 37.8723003,10.1466983 C38.9974533,9.02448279 39.6069112,7.52819549 39.6069112,5.93839023 C39.6069112,4.34858497 38.9505719,2.85229767 37.8254189,1.73008219 Z M36.6533845,7.06060571 L32.4809421,2.89905665 C32.8559931,2.75877971 33.2310441,2.71202074 33.6060951,2.71202074 C34.4499599,2.71202074 35.2938246,3.03933358 35.9032825,3.6472003 L35.9032825,3.6472003 C36.5127404,4.25506702 36.84091,5.04996964 36.84091,5.93839023 C36.84091,6.31246206 36.7940287,6.68653388 36.6533845,7.06060571 Z" id="Shape" fill="#000000"></path>
                        <path d="M2.72957201,35.1183837 C3.00993801,35.3973435 3.33703167,35.4903301 3.710853,35.4903301 C4.08467433,35.4903301 4.41176799,35.3508502 4.69213398,35.1183837 L8.75744092,31.0734664 C11.7012839,33.8165712 15.6731355,35.5368234 20.0188084,35.5368234 C24.411209,35.5368234 28.4297883,33.8165712 31.4203589,30.9804798 L35.6258488,35.164877 C35.9062148,35.4438368 36.2333085,35.5368234 36.6071298,35.5368234 C36.9809512,35.5368234 37.3080448,35.3973435 37.5884108,35.164877 C38.1024151,34.6534507 38.1024151,33.7700779 37.5884108,33.2586516 L33.2894655,28.9812678 C35.3454828,26.238163 36.5604022,22.8441519 36.5604022,19.1711811 C36.5604022,10.1514804 29.1774309,2.80553869 20.1122637,2.80553869 C11.0470966,2.80553869 3.52394233,10.1049871 3.52394233,19.1246878 C3.52394233,22.8441519 4.78558932,26.2846563 6.88833428,29.0742544 L2.72957201,33.2121583 C2.21556769,33.7235846 2.21556769,34.6069574 2.72957201,35.1183837 Z" id="Shape" fill="#000000"></path>
                        <path d="M18.5625765,21.6429856 L23.8132905,25.5707397 C24.0476974,25.7577757 24.3289857,25.8512936 24.6102739,25.8512936 C25.0322063,25.8512936 25.4541387,25.6642577 25.6885456,25.2901859 C26.1573593,24.6823192 26.0167152,23.8406575 25.4072573,23.3730678 L20.7191198,19.8193854 L20.7191198,11.3560104 C20.7191198,10.6078667 20.1096619,10 19.3595599,10 C18.6094579,10 18,10.6078667 18,11.3560104 L18,20.5675291 C18,20.9883599 18.2344069,21.4091907 18.5625765,21.6429856 Z" id="Shape" fill="#FFFFFF"></path>
                    </g>
                </g>
            </g>
        </g>
    </g>
</svg>