<?xml version="1.0" encoding="UTF-8"?>
<svg width="166px" height="340px" viewBox="0 0 166 340" version="1.1" xmlns="http://www.w3.org/2000/svg" xmlns:xlink="http://www.w3.org/1999/xlink">
    <!-- Generator: Sketch 40 (33762) - http://www.bohemiancoding.com/sketch -->
    <title>iphoneNew</title>
    <desc>Created with Sketch.</desc>
    <defs>
        <polygon id="path-1" points="164.873788 0.153989949 0.128872027 0.153989949 0.128872027 339.894793 164.873788 339.894793 164.873788 0.153989949"></polygon>
    </defs>
    <g id="Page-1" stroke="none" stroke-width="1" fill="none" fill-rule="evenodd" opacity="0.900000036">
        <g id="2_MOBILE" transform="translate(-552.000000, -340.000000)">
            <g id="Content_left" transform="translate(448.000000, 340.000000)">
                <g id="iphoneNew" transform="translate(104.000000, 0.000000)">
                    <path d="M27.5486901,339.296108 C12.9756268,339.296108 1.11940032,327.386222 1.11940032,312.747203 L1.11940032,27.3013009 C1.11940032,12.6618834 12.9756268,0.752396486 27.5486901,0.752396486 L138.243208,0.752396486 C152.816272,0.752396486 164.672895,12.6618834 164.672895,27.3013009 L164.672895,312.747203 C164.672895,327.386222 152.816272,339.296108 138.243208,339.296108 L27.5486901,339.296108 Z" id="Fill-1" fill="#F3F3F3"></path>
                    <g id="Group-5" transform="translate(0.394818, 0.000000)">
                        <mask id="mask-2" fill="white">
                            <use xlink:href="#path-1"></use>
                        </mask>
                        <g id="Clip-4"></g>
                        <path d="M137.848391,0.153870268 L27.1538722,0.153870268 C12.2523739,0.153870268 0.128872027,12.3318422 0.128872027,27.3011812 L0.128872027,312.747083 C0.128872027,327.716422 12.2523739,339.894793 27.1538722,339.894793 L137.848391,339.894793 C152.749889,339.894793 164.873788,327.716422 164.873788,312.747083 L164.873788,27.3011812 C164.873788,12.3318422 152.749889,0.153870268 137.848391,0.153870268 M137.848391,1.35068334 C152.116053,1.35068334 163.682367,12.9689457 163.682367,27.3011812 L163.682367,312.747083 C163.682367,327.079319 152.116053,338.69798 137.848391,338.69798 L27.1538722,338.69798 C12.8862098,338.69798 1.32029292,327.079319 1.32029292,312.747083 L1.32029292,27.3011812 C1.32029292,12.9689457 12.8862098,1.35068334 27.1538722,1.35068334 L137.848391,1.35068334" id="Fill-3" fill="#FFFFFF" mask="url(#mask-2)"></path>
                    </g>
                    <path d="M157.357928,36.1482628 L8.43031636,36.1482628 C7.77225489,36.1482628 7.23889547,36.6840362 7.23889547,37.3450759 L7.23889547,303.436516 C7.23889547,304.097157 7.77225489,304.633329 8.43031636,304.633329 L157.357928,304.633329 C158.015593,304.633329 158.549349,304.097157 158.549349,303.436516 L158.549349,37.3450759 C158.549349,36.6840362 158.015593,36.1482628 157.357928,36.1482628" id="Fill-24" fill="#020C18"></path>
                </g>
            </g>
        </g>
    </g>
</svg>