<?xml version="1.0" encoding="UTF-8" standalone="no"?>
<svg width="1048px" height="626px" viewBox="0 0 1048 626" version="1.1" xmlns="http://www.w3.org/2000/svg" xmlns:xlink="http://www.w3.org/1999/xlink">
    <!-- Generator: Sketch 41.2 (35397) - http://www.bohemiancoding.com/sketch -->
    <title>Combined Shape</title>
    <desc>Created with Sketch.</desc>
    <defs></defs>
    <g id="Page-1" stroke="none" stroke-width="1" fill="none" fill-rule="evenodd">
        <g id="HOME" transform="translate(-373.000000, -221.000000)" fill="#000000">
            <path d="M894.669503,257.430087 C881.339837,257.043112 613.656136,250.362289 473.257301,333.29416 C473.257301,333.29416 460.873313,612.941455 505.455671,686.308997 C550.03803,759.676538 668.924319,817.449047 705.368628,809.297098 C741.31493,801.256544 858.498156,664.94586 895.646084,661.222018 C932.794003,664.945848 1049.97724,801.256544 1085.92354,809.297098 C1122.36785,817.449047 1241.25414,759.676538 1285.8365,686.308997 C1330.41886,612.941455 1318.03487,333.29416 1318.03487,333.29416 C1177.63603,250.362289 908.092399,257.043112 894.669503,257.430087 Z M373,221 L1421,221 L1421,847 L373,847 L373,221 Z" id="Combined-Shape"></path>
        </g>
    </g>
</svg>