<?xml version="1.0" encoding="UTF-8" standalone="no"?>
<svg viewBox="0 0 848 554" version="1.1" xmlns="http://www.w3.org/2000/svg" xmlns:xlink="http://www.w3.org/1999/xlink">
    <!-- Generator: Sketch 41.2 (35397) - http://www.bohemiancoding.com/sketch -->
    <title>Path 2</title>
    <desc>Created with Sketch.</desc>
    <defs></defs>
    <g id="Page-1" stroke="#f00" stroke-width="1" fill="#f00" fill-rule="evenodd">
        <g id="HOME" transform="translate(-472.000000, -257.000000)" fill="#000000">
            <path d="M473,334 C473,334 569.5,257.5 897,257.5 C1224.5,257.5 1317,334 1317,334 C1317,334 1332,610 1288,683.5 C1244,757 1124.5,820 1082,808.5 C1050,787.5 1043,783 990.5,734 C938,685 911,662 900,662 C889,662 878.5,661 803.5,731 C728.5,801 726.5,801.5 707,809.5 C687.5,817.5 568.40443,775.552392 506.5,691 C465.5,635 473,334 473,334 Z" id="Path-2"></path>
        </g>
    </g>
</svg>
