<?xml version="1.0" encoding="UTF-8"?>
<svg width="25px" height="47px" viewBox="0 0 25 47" version="1.1" xmlns="http://www.w3.org/2000/svg" xmlns:xlink="http://www.w3.org/1999/xlink">
    <!-- Generator: Sketch 40 (33762) - http://www.bohemiancoding.com/sketch -->
    <title>Group 4</title>
    <desc>Created with Sketch.</desc>
    <defs></defs>
    <g id="Page-1" stroke="none" stroke-width="1" fill="none" fill-rule="evenodd">
        <g id="2_MOBILE" transform="translate(-567.000000, -211.000000)">
            <g id="iPhone-NON-DETECTE" transform="translate(567.000000, 207.000000)">
                <g id="Group-4" transform="translate(0.000000, 4.000000)">
                    <path d="M22.2149297,0 L2.63729508,0 C1.18301522,0 0,1.17937863 0,2.62918803 L0,44.3199154 C0,45.7697248 1.18301522,46.9491034 2.63729508,46.9491034 L10.5752108,46.9491034 L14.2770141,46.9491034 L22.2156148,46.9491034 C23.6698946,46.9491034 24.8529098,45.7697248 24.8529098,44.3199154 L24.8529098,2.62850513 C24.8515398,1.17937863 23.6685246,0 22.2149297,0 Z M12.4254274,38.134153 C10.7909895,38.134153 9.46069672,39.4603564 9.46069672,41.0897701 C9.46069672,42.7191838 10.7909895,44.0447043 12.4254274,44.0447043 C14.0598653,44.0447043 15.3901581,42.7191838 15.3901581,41.0897701 C15.3901581,39.4603564 14.0605504,38.134153 12.4254274,38.134153 Z M12.4240574,3.21034103 C12.6062705,3.21034103 12.7850585,3.13453846 12.9124707,3.00820085 C13.0398829,2.87776581 13.1159192,2.70294188 13.1159192,2.52470342 C13.1159192,2.34305043 13.0398829,2.1682265 12.9124707,2.03779145 C12.6583314,1.78375043 12.2007436,1.7810188 11.9397541,2.03779145 C11.8123419,2.1682265 11.7363056,2.34305043 11.7363056,2.52470342 C11.7363056,2.70294188 11.8123419,2.87776581 11.9397541,3.00820085 C12.0657963,3.13522137 12.2452693,3.21034103 12.4240574,3.21034103 Z M14.7030913,3.72320342 L10.1491335,3.72320342 C9.769637,3.72320342 9.46138173,4.03051111 9.46138173,4.40884103 C9.46138173,4.78717094 9.769637,5.09447863 10.1491335,5.09447863 L14.7030913,5.09447863 C15.0825878,5.09447863 15.3908431,4.78717094 15.3908431,4.40884103 C15.3908431,4.03051111 15.0825878,3.72320342 14.7030913,3.72320342 Z" id="Combined-Shape" fill="#FFFFFF"></path>
                    <g id="Group" transform="translate(5.113636, 14.156627)" fill="#970000">
                        <path d="M1.71853196,0.00206686747 C1.27925923,0.00206686747 0.837895597,0.166963253 0.50271946,0.501059639 C-0.167553267,1.16908253 -0.16759304,2.25653795 0.50271946,2.92444759 L4.95473082,7.3614741 L0.50271946,11.7983873 C-0.16759304,12.4664102 -0.167553267,13.5538657 0.50271946,14.2218319 C1.17307741,14.8899114 2.26404901,14.8899114 2.93433878,14.2218319 L7.38634957,9.78480542 L11.8383666,14.2218319 C12.5086507,14.8899114 13.5996791,14.8899114 14.2699859,14.2218319 C14.9403041,13.5537524 14.9403041,12.4665235 14.2699859,11.7983873 L9.81797457,7.3614741 L14.2699859,2.92444759 C14.9403041,2.25636807 14.9403041,1.16919578 14.2699859,0.501059639 C13.5996791,-0.16701988 12.5086507,-0.16701988 11.8383666,0.501059639 L7.38634957,4.93808614 L2.93433878,0.501059639 C2.59919673,0.166963253 2.15779901,0.00218012048 1.71853196,0.00206686747 L1.71853196,0.00206686747 Z" id="Shape"></path>
                    </g>
                </g>
            </g>
        </g>
    </g>
</svg>