<?xml version="1.0" encoding="UTF-8"?>
<svg width="25px" height="47px" viewBox="0 0 25 47" version="1.1" xmlns="http://www.w3.org/2000/svg" xmlns:xlink="http://www.w3.org/1999/xlink">
    <!-- Generator: Sketch 40 (33762) - http://www.bohemiancoding.com/sketch -->
    <title>iphone</title>
    <desc>Created with Sketch.</desc>
    <defs></defs>
    <g id="Page-1" stroke="none" stroke-width="1" fill="none" fill-rule="evenodd">
        <g id="2_MOBILE" transform="translate(-587.000000, -211.000000)">
            <g id="iPhone-DETECTE" transform="translate(587.000000, 207.000000)">
                <g id="iphone" transform="translate(0.000000, 4.000000)">
                    <path d="M22.2149297,0 L2.63729508,0 C1.18301522,0 0,1.17937863 0,2.62918803 L0,44.3199154 C0,45.7697248 1.18301522,46.9491034 2.63729508,46.9491034 L10.5752108,46.9491034 L14.2770141,46.9491034 L22.2156148,46.9491034 C23.6698946,46.9491034 24.8529098,45.7697248 24.8529098,44.3199154 L24.8529098,2.62850513 C24.8515398,1.17937863 23.6685246,0 22.2149297,0 Z M12.4254274,38.134153 C10.7909895,38.134153 9.46069672,39.4603564 9.46069672,41.0897701 C9.46069672,42.7191838 10.7909895,44.0447043 12.4254274,44.0447043 C14.0598653,44.0447043 15.3901581,42.7191838 15.3901581,41.0897701 C15.3901581,39.4603564 14.0605504,38.134153 12.4254274,38.134153 Z M12.4240574,3.21034103 C12.6062705,3.21034103 12.7850585,3.13453846 12.9124707,3.00820085 C13.0398829,2.87776581 13.1159192,2.70294188 13.1159192,2.52470342 C13.1159192,2.34305043 13.0398829,2.1682265 12.9124707,2.03779145 C12.6583314,1.78375043 12.2007436,1.7810188 11.9397541,2.03779145 C11.8123419,2.1682265 11.7363056,2.34305043 11.7363056,2.52470342 C11.7363056,2.70294188 11.8123419,2.87776581 11.9397541,3.00820085 C12.0657963,3.13522137 12.2452693,3.21034103 12.4240574,3.21034103 Z M14.7030913,3.72320342 L10.1491335,3.72320342 C9.769637,3.72320342 9.46138173,4.03051111 9.46138173,4.40884103 C9.46138173,4.78717094 9.769637,5.09447863 10.1491335,5.09447863 L14.7030913,5.09447863 C15.0825878,5.09447863 15.3908431,4.78717094 15.3908431,4.40884103 C15.3908431,4.03051111 15.0825878,3.72320342 14.7030913,3.72320342 Z" id="Combined-Shape" fill="#FFFFFF"></path>
                    <path d="M10.3040859,28.5882458 C9.97046763,28.5882458 9.6494002,28.4560244 9.41239407,28.2190183 L4.36930051,23.1759247 C3.87689983,22.6832321 3.87689983,21.8852336 4.36930051,21.392833 C4.86199306,20.9004323 5.65999154,20.9004323 6.15239222,21.392833 L10.2302404,25.4706811 L18.7796821,15.442578 C19.2315115,14.9134005 20.0268831,14.8494789 20.5572281,15.3010165 C21.0869893,15.7528459 21.1503272,16.5488012 20.6987896,17.0785625 L11.2634937,28.1451727 C11.035244,28.4128262 10.705712,28.5730681 10.3539973,28.5870783 C10.3373601,28.587662 10.320723,28.5882458 10.3040859,28.5882458 Z" id="Shape" fill="#32AE00"></path>
                </g>
            </g>
        </g>
    </g>
</svg>